PathFileType	4	(X/Y/Z)	C:\Users\Basilio\Documents\Thesis Gigler\squatting_fais\c3dfiles\039\SLS_pre_back1\markers_experimental.trc
DataRate	CameraRate	NumFrames	NumMarkers	Units	OrigDataRate	OrigDataStartFrame	OrigNumFrames
200.000000	200.000000	4	63	mm	200.000000	1553	1775
Frame#	Time	FHD			LBHD			RBHD			C7			T10			CLAV			LSHO			LUUPA			LMUPA			LDUPA			LLEP			LMEP			LRAD			LUL			LRFIN			RSHO			RUPA1			RMUPA			RDUPA			RLEP			RMEP			RRAD			RUL			RUFIN			LASI			RASI			USACR			LSACR			RSACR			LTHI1			LTHI2			LTHI3			LTHI4			LLFC			LMFC			LTIB1			LTIB2			LTIB3			LTIB4			LLMAL			LMMAL			LHEE			LMT1			LMT2			LMT5			RTHI			RTHI2			RTHI3			RTHI4			RLFC			RMFC			RTIB1			RTIB2			RTIB3			RTIB4			RLMAL			RMMAL			RHEE			RMT1			RMT2			RMT5			*61			*62			
		X1	Y1	Z1	X2	Y2	Z2	X3	Y3	Z3	X4	Y4	Z4	X5	Y5	Z5	X6	Y6	Z6	X7	Y7	Z7	X8	Y8	Z8	X9	Y9	Z9	X10	Y10	Z10	X11	Y11	Z11	X12	Y12	Z12	X13	Y13	Z13	X14	Y14	Z14	X15	Y15	Z15	X16	Y16	Z16	X17	Y17	Z17	X18	Y18	Z18	X19	Y19	Z19	X20	Y20	Z20	X21	Y21	Z21	X22	Y22	Z22	X23	Y23	Z23	X24	Y24	Z24	X25	Y25	Z25	X26	Y26	Z26	X27	Y27	Z27	X28	Y28	Z28	X29	Y29	Z29	X30	Y30	Z30	X31	Y31	Z31	X32	Y32	Z32	X33	Y33	Z33	X34	Y34	Z34	X35	Y35	Z35	X36	Y36	Z36	X37	Y37	Z37	X38	Y38	Z38	X39	Y39	Z39	X40	Y40	Z40	X41	Y41	Z41	X42	Y42	Z42	X43	Y43	Z43	X44	Y44	Z44	X45	Y45	Z45	X46	Y46	Z46	X47	Y47	Z47	X48	Y48	Z48	X49	Y49	Z49	X50	Y50	Z50	X51	Y51	Z51	X52	Y52	Z52	X53	Y53	Z53	X54	Y54	Z54	X55	Y55	Z55	X56	Y56	Z56	X57	Y57	Z57	X58	Y58	Z58	X59	Y59	Z59	X60	Y60	Z60	X61	Y61	Z61	X62	Y62	Z62	X63	Y63	Z63	

1554	7.765000000000001	-163.2920532226563	1774.28564453125	-679.1065673828126	-325.2457275390626	1758.599487304688	-796.1137695312502	-295.1529235839844	1761.31396484375	-657.8420410156251	-376.8449401855469	1590.998779296875	-730.6611938476564	-407.4049682617189	1284.221435546875	-744.1287231445314	nan	nan	nan	-314.7523803710938	1599.197875976563	-887.7710571289065	-153.3962097167969	1553.160766601563	-998.967224121094	-128.7034149169922	1586.571166992188	-969.5207519531252	-83.69430541992189	1561.240234375	-999.6729125976565	-17.06881904602051	1569.305786132813	-996.0935668945315	-13.13630104064942	1499.64501953125	-960.5721435546877	263.2170715332032	1595.421508789063	-910.9431762695315	261.9544372558594	1602.025634765625	-986.998962402344	340.8338928222657	1639.3779296875	-906.9939575195315	-255.3221282958985	1581.474365234375	-572.0102539062501	-94.26351928710939	1500.989379882813	-486.746307373047	-67.0816116333008	1535.20166015625	-510.6687927246095	-24.58611869812012	1496.779541015625	-490.7449951171876	38.62832641601563	1510.4921875	-505.0611572265626	38.26181030273438	1446.019775390625	-548.5131225585939	314.2922973632813	1557.671508789063	-622.4603881835939	325.1228942871094	1544.27001953125	-548.0154418945314	396.3305664062501	1600.665893554688	-625.0527343750001	-266.1671447753907	1101.89892578125	-891.4546508789065	-238.1409454345704	1074.530883789063	-671.0357666015626	-428.674285888672	1155.21826171875	-750.9346313476564	-437.2730712890626	1125.989013671875	-781.699645996094	-428.9622192382814	1119.36083984375	-722.6409912109376	-294.6822204589844	840.041198730469	-1003.019165039063	-245.7944488525391	773.471862792969	-1024.90087890625	-199.440414428711	784.1240234375002	-1025.122314453125	-258.5034484863282	713.0241088867189	-1016.616760253906	-236.8610534667969	626.5386352539064	-1019.036804199219	-191.0928497314453	578.3031616210939	-922.862487792969	-309.0087280273438	508.596405029297	-989.1712036132815	-379.7371520996094	561.8757324218751	-997.1306152343752	-367.0463256835938	520.1713867187501	-993.3098754882815	-422.8296203613282	484.9222717285157	-935.3677978515627	-608.7612304687501	482.117889404297	-900.5815429687502	-562.5676269531251	464.1128845214845	-829.145935058594	-640.2849121093751	539.8636474609376	-843.7054443359377	-598.2450561523439	310.3361511230469	-818.5718383789065	-625.6568603515626	309.9371337890626	-851.6374511718752	-684.7830810546876	345.0715942382813	-871.2858886718752	-270.6537170410157	800.6624755859377	-629.9962768554689	-226.6432647705079	749.8805541992189	-635.4220581054689	-195.9733276367188	756.3726196289064	-644.7182006835939	-249.4888458251954	669.4341430664064	-654.9711914062501	-277.3793640136719	532.2767333984376	-689.8228149414064	-254.1840972900391	535.2952880859376	-806.4670410156252	-257.0754699707032	321.6311645507813	-731.5789184570314	-346.8175964355469	263.2281188964844	-721.4014282226564	-302.8619995117188	250.0418701171876	-726.1335449218751	-293.3509826660157	205.7405853271485	-766.6686401367189	-369.4984741210938	119.7382736206055	-744.9875488281251	-343.8101196289063	137.0832214355469	-831.2222290039065	-441.2401123046876	99.19639587402347	-795.7647094726565	-215.6839447021485	51.11981582641603	-808.2695312500002	-219.1688079833985	54.91712570190431	-761.8654174804689	-274.2774963378907	38.05885314941407	-710.2922973632814	-237.0045928955079	626.4390258789064	-1019.363464355469	nan	nan	nan	
1555	7.77	-163.4492492675782	1774.245239257813	-679.1610107421876	-325.5404357910157	1758.759033203125	-795.9788818359377	-295.2371520996094	1761.377685546875	-657.7749633789064	-377.6519165039063	1591.482788085938	-730.5399169921876	-408.0825195312501	1284.058349609375	-744.4300537109376	nan	nan	nan	-314.8721923828126	1599.306518554688	-887.790954589844	-153.4117584228516	1553.352905273438	-999.007019042969	-128.8757934570313	1586.7275390625	-969.4734497070315	-83.85055541992189	1561.474243164063	-999.7073364257815	-17.15829658508301	1569.353393554688	-996.1059570312502	-13.2230806350708	1499.6845703125	-960.6184082031252	263.0081787109376	1595.486206054688	-911.0637207031252	261.8840942382813	1602.101806640625	-987.1812744140627	340.7364807128907	1639.431396484375	-907.0867309570315	-255.4065246582032	1581.525146484375	-572.0093383789064	-94.35911560058595	1501.104125976563	-486.7542724609376	-67.11199188232423	1535.215942382813	-510.6607055664064	-24.6380729675293	1496.734619140625	-490.8258056640626	38.52768707275391	1510.485717773438	-505.1471252441407	38.17464447021485	1446.107666015625	-548.5521850585939	314.1560058593751	1557.729614257813	-622.6531982421876	325.0332336425782	1544.311401367188	-548.2344970703126	396.1254272460939	1600.764282226563	-625.2326049804689	-266.3046875000001	1101.987060546875	-891.4075927734377	-238.2529449462891	1074.649780273438	-670.9575805664064	-428.7733154296876	1155.30810546875	-750.9426269531251	-437.3474731445314	1126.074340820313	-781.6401977539065	-429.0530395507814	1119.486450195313	-722.6365356445314	-294.7392578125001	840.0925903320315	-1002.950622558594	-245.7811431884766	773.4812011718752	-1024.809814453125	-199.4079132080079	784.233093261719	-1025.026977539063	-258.5522155761719	713.1210937500001	-1016.533630371094	-237.1868591308594	626.5827636718751	-1019.299255371094	-191.9164581298828	577.9707031250001	-923.1423950195315	-308.9812622070313	508.6200256347657	-989.1992187500002	-379.7564697265626	561.9835205078126	-997.1027832031252	-367.0898132324219	520.2391357421876	-993.2959594726565	-422.981903076172	485.0133666992189	-935.6582641601565	-608.8621826171876	482.1924438476564	-900.8081665039065	-562.7855834960939	464.2173156738282	-829.3579711914065	-640.4313964843751	540.1041259765626	-843.9908447265627	-598.4134521484376	310.5278625488282	-818.6295166015627	-625.8341064453126	310.2550048828126	-851.7758789062502	-684.9797973632814	345.1925659179688	-871.3847656250002	-270.7802734375001	800.7363891601565	-629.9243774414064	-226.7318267822266	749.9531250000001	-635.4692993164064	-196.1239776611329	756.4088745117189	-644.6525268554689	-249.9244995117188	669.3748779296876	-654.8682250976564	-277.5748596191407	532.3601684570314	-689.7802734375001	-254.2234802246094	535.3433837890626	-806.3576660156252	-257.1583862304688	321.7123718261719	-731.4456787109376	-346.8786315917969	263.1923217773438	-721.3845214843751	-302.9385681152344	250.1044464111329	-726.0919799804689	-293.3941040039063	205.7940216064454	-766.5358886718751	-369.4972839355469	119.7744064331055	-744.9594116210939	-343.8143920898438	137.0781860351563	-831.139343261719	-441.2492980957032	99.20939636230472	-795.743591308594	-215.6897430419922	51.14952087402345	-808.261657714844	-219.2180786132813	54.90264892578126	-761.8551025390626	-274.2833557128907	38.04502868652344	-710.2808227539064	nan	nan	nan	nan	nan	nan	
1556	7.775	-163.4810485839844	1774.391967773438	-679.1676635742189	-326.7571716308594	1758.94873046875	-795.9215087890627	-295.3420410156251	1761.458374023438	-657.7651367187501	-377.7375793457032	1591.5400390625	-730.5058593750001	-408.2296142578126	1284.213500976563	-744.3725585937501	nan	nan	nan	-314.9298706054688	1599.410888671875	-887.815612792969	-153.5569915771485	1553.456298828125	-999.0485839843752	-129.1865234375	1586.768432617188	-969.4936523437502	-83.95235443115236	1561.6025390625	-999.7908325195315	-17.30122566223145	1569.450439453125	-996.1285400390627	-13.4314546585083	1499.712890625	-960.664733886719	262.9655761718751	1595.580322265625	-911.148864746094	261.7482299804688	1602.246704101563	-987.3113403320315	340.6495971679688	1639.411743164063	-907.2041625976565	-255.5057830810547	1581.585571289063	-571.9979858398439	-94.45980072021486	1501.048583984375	-486.7968139648439	-67.17427062988283	1535.230224609375	-510.7291259765626	-24.70417213439942	1496.795288085938	-490.9206542968751	38.44402313232423	1510.495849609375	-505.2883605957032	38.10356140136719	1446.217407226563	-548.6046142578126	314.0282287597657	1557.844970703125	-622.8125000000001	324.9516296386719	1544.4619140625	-548.3954467773439	395.9935913085939	1600.80615234375	-625.4973754882814	-266.4850769042969	1102.04638671875	-891.3568115234377	-238.386459350586	1074.737915039063	-670.8874511718751	-428.8666381835939	1155.357177734375	-750.9206542968751	-437.4214172363282	1126.15380859375	-781.6430664062502	-429.1555175781251	1119.526611328125	-722.6353149414064	-294.7359924316407	840.147644042969	-1002.887390136719	-245.8347778320313	773.626159667969	-1024.725952148438	-199.4718170166016	784.244079589844	-1024.91650390625	-258.5427856445313	713.1637573242189	-1016.431945800781	-237.1393280029297	626.5983886718751	-1019.226684570313	-191.9598236083985	578.0103759765626	-923.049499511719	-308.9607543945313	508.5317382812501	-989.0977172851565	-379.8244628906251	562.0750732421876	-997.1592407226565	-366.9549560546876	520.6348876953126	-993.2327880859377	-423.1101989746095	485.1319274902345	-935.7456665039065	-608.9867553710939	482.3418884277345	-900.9748535156252	-562.9448852539064	464.4429321289064	-829.5703735351565	-640.5700073242189	540.3215942382814	-844.2825927734377	-598.5653076171876	310.7253723144532	-818.7097167968752	-626.1350708007814	310.3869628906251	-851.832946777344	-685.2155151367189	345.4164428710938	-871.516296386719	-270.8949890136719	800.7979125976565	-629.8850097656251	-226.6748657226563	750.2791137695314	-635.2545776367189	-196.2388458251954	756.4710083007814	-644.5911865234376	-250.0303802490235	669.4423217773439	-654.8432006835939	-277.7061462402344	532.4235839843751	-689.7367553710939	-254.3146057128907	535.4267578125001	-806.344421386719	-257.2613830566407	321.7944335937501	-731.3499755859376	-347.0307617187501	263.2609252929688	-721.3430786132814	-302.9881591796876	250.248031616211	-726.0297851562501	-293.4419250488282	205.8294219970704	-766.5382080078126	-369.5397033691407	119.722640991211	-744.8833007812501	-343.6939086914063	137.3857421875	-831.0009765625002	-441.2801513671876	99.24580383300784	-795.7529907226565	-215.7119445800782	51.15621948242189	-808.2381591796877	-219.1764373779297	54.90171432495119	-761.8828125000001	-274.2930603027344	38.03107833862305	-710.3016967773439	nan	nan	nan	nan	nan	nan	
1557	7.78	-163.5888977050782	1774.421997070313	-679.1924438476564	-326.8067626953126	1759.041015625	-795.915954589844	-295.4875183105469	1761.509643554688	-657.7147216796876	-377.7824707031251	1591.595092773438	-730.5094604492189	-408.3229980468751	1284.253662109375	-744.3901977539064	nan	nan	nan	-315.3902587890626	1599.66748046875	-887.8286132812502	-153.6951599121094	1553.583251953125	-999.0771484375002	-129.1292419433594	1586.5908203125	-969.500915527344	-84.13158416748048	1561.822875976563	-999.7939453125002	-17.36359596252442	1569.560424804688	-996.1771240234377	-13.44942378997803	1499.831176757813	-960.7175292968752	262.9012145996094	1595.6240234375	-911.2307128906252	261.5848693847657	1602.359252929688	-987.4672851562502	340.5691833496094	1639.5107421875	-907.3317871093752	-255.6000366210938	1581.660522460938	-572.0129394531251	-94.48580932617189	1501.16845703125	-486.8300170898439	-67.24661254882814	1535.259887695313	-510.7776794433595	-24.79922103881837	1496.937255859375	-490.9188842773439	38.3888053894043	1510.616333007813	-505.3077697753907	38.02835845947266	1446.29638671875	-548.6753540039064	313.9707031250001	1557.9228515625	-622.9900512695314	324.8934631347657	1544.524291992188	-548.6636352539064	395.7910156250001	1600.9150390625	-625.6697387695314	-266.5783081054688	1102.128173828125	-891.318786621094	-238.5236206054688	1074.837890625	-670.8577880859376	-428.9104919433595	1155.456787109375	-750.8951416015626	-437.5440063476564	1126.181884765625	-781.6446533203127	-429.1636657714845	1119.59375	-722.5720214843751	-294.7473754882813	840.1962890625002	-1002.873901367188	-245.8633117675782	773.6843872070315	-1024.610473632813	-199.4519805908204	784.2700805664065	-1024.809936523438	-258.5431518554688	713.2566528320314	-1016.370727539063	-237.2025299072266	626.6478271484376	-1019.168701171875	-192.056137084961	578.1061401367189	-922.935974121094	-308.9075317382813	508.420867919922	-988.9607543945315	-379.9004821777344	562.1423950195314	-997.2414550781252	-366.9513244628907	520.6463012695314	-993.2515258789065	-423.2399902343751	485.2635192871095	-935.763122558594	-609.1861572265626	482.504608154297	-901.1811523437502	-563.0989990234376	464.5589599609376	-829.688903808594	-640.6493530273439	540.4605102539064	-844.4804687500002	-598.7632446289064	310.9044494628907	-818.8425903320315	-626.3740234375001	310.6281738281251	-851.8437500000002	-685.2567749023439	344.9498901367188	-871.764099121094	-270.9708862304688	800.7828369140627	-629.8341674804689	-226.8260040283204	750.3282470703126	-635.2106323242189	-196.3144836425782	756.5082397460939	-644.5217285156251	-250.1294403076172	669.5001220703126	-654.8184204101564	-277.7849121093751	532.4781494140626	-689.6629028320314	-254.3783111572266	535.4981689453126	-806.2871704101565	-257.3292236328126	321.8472900390626	-731.3184814453126	-347.1309204101563	263.3771667480469	-721.2158203125001	-303.0569152832032	250.256820678711	-725.9971923828126	-293.5050659179688	205.9189758300782	-766.3925781250001	-369.5995483398438	119.7175521850586	-744.9154052734376	-343.6384277343751	137.4007568359375	-830.955505371094	-441.2478332519532	99.21342468261722	-795.7166137695315	-215.683334350586	51.16261291503908	-808.2556762695315	-219.1709747314454	54.91725921630861	-761.8267822265626	-274.3136291503907	38.00921249389649	-710.3310546875001	nan	nan	nan	nan	nan	nan	
